<?xml version="1.0" encoding="utf-8"?>
<!-- Generator: Adobe Illustrator 23.0.1, SVG Export Plug-In . SVG Version: 6.00 Build 0)  -->
<svg version="1.1" xmlns="http://www.w3.org/2000/svg" xmlns:xlink="http://www.w3.org/1999/xlink" x="0px" y="0px"
	 viewBox="0 0 500 500" style="enable-background:new 0 0 500 500;" xml:space="preserve">
<style type="text/css">
	.st0{display:none;}
	.st1{display:inline;fill:#FFFFFF;}
	.st2{fill:#D8DEE4;}
	.st3{fill:url(#SVGID_1_);}
	.st4{fill:url(#SVGID_2_);}
	.st5{fill:#F2F2F2;}
	.st6{fill:#174159;}
	.st7{fill:#BEC8D2;}
	.st8{fill:url(#SVGID_3_);}
	.st9{fill:#FAE54E;}
	.st10{fill:#FCEF95;}
	.st11{fill:#6736DC;}
	.st12{fill:#784DE0;}
	.st13{fill:#2E546A;}
	.st14{fill:#45677A;}
	.st15{font-family:'Lato-Bold';}
	.st16{font-size:7.926px;}
	.st17{fill:#FFFFFF;}
	.st18{fill:url(#SVGID_4_);}
	.st19{fill:#6CA6F0;}
	.st20{fill:#4C93ED;}
	.st21{fill:#16569B;}
	.st22{fill:url(#SVGID_5_);}
	.st23{fill:url(#SVGID_6_);}
	.st24{fill:#F6F6F6;}
	.st25{fill:url(#SVGID_7_);}
	.st26{fill:#5620D8;}
	.st27{fill:url(#SVGID_8_);}
	.st28{fill:url(#SVGID_9_);}
	.st29{fill:url(#SVGID_10_);}
	.st30{fill:url(#SVGID_11_);}
	.st31{fill:url(#SVGID_12_);}
	.st32{fill:#2D80EA;}
	.st33{fill:url(#SVGID_13_);}
	.st34{fill:#E563C8;}
	.st35{fill:#E148BE;}
	.st36{fill:#C8D0D9;}
	.st37{fill:url(#SVGID_14_);}
	.st38{font-family:'Lato-Black';}
	.st39{font-size:18.183px;}
	.st40{fill:#CBD3DB;}
	.st41{fill:url(#SVGID_15_);}
	.st42{fill:url(#SVGID_16_);}
	.st43{fill:url(#SVGID_17_);}
	.st44{fill:url(#SVGID_18_);}
	.st45{display:inline;fill:#174159;}
	.st46{font-family:'Lato-Regular';}
	.st47{font-size:14px;}
	.st48{letter-spacing:2;}
	.st49{display:inline;}
	.st50{fill:#A5B7C6;}
</style>
<g id="BACKGROUND" class="st0">
	<rect class="st1" width="500" height="500"/>
</g>
<g id="OBJECTS">
	<g>
		<g>
			<g>
				<g>
					<path class="st2" d="M167.44,311.52l213.32,123.16c8.85,5.11,16.03-0.31,16.03-12.12v-165.9c0-11.81-7.18-25.52-16.03-30.63
						L167.44,102.87c-8.85-5.11-16.03,0.31-16.03,12.12v165.9C151.4,292.7,158.58,306.41,167.44,311.52z"/>
				</g>
				<g>
					
						<linearGradient id="SVGID_1_" gradientUnits="userSpaceOnUse" x1="225.905" y1="383.2474" x2="225.905" y2="219.4086" gradientTransform="matrix(-1 0 0 1 500 0)">
						<stop  offset="9.313420e-03" style="stop-color:#174159"/>
						<stop  offset="1" style="stop-color:#45677A"/>
					</linearGradient>
					<polygon class="st3" points="157.48,278.36 390.71,413.02 390.71,251.35 157.48,116.69 					"/>
				</g>
			</g>
			<g>
				
					<linearGradient id="SVGID_2_" gradientUnits="userSpaceOnUse" x1="147.614" y1="445.3814" x2="206.9667" y2="211.0626" gradientTransform="matrix(-1 0 0 1 500 0)">
					<stop  offset="9.313420e-03" style="stop-color:#BEC8D2"/>
					<stop  offset="1" style="stop-color:#F2F2F2"/>
				</linearGradient>
				<path class="st4" d="M396.79,422.56v-165.9c0-11.81-7.18-25.52-16.03-30.63L167.44,102.87c-4.06-2.35-7.77-2.47-10.59-0.78
					l0-0.01l13.22-7.76c2.84-1.78,6.6-1.69,10.73,0.7l213.32,123.16c8.85,5.11,16.03,18.83,16.03,30.63v165.9
					c0,6.4-2.11,10.92-5.46,12.91l-13.48,7.93l0-0.01C394.62,433.59,396.79,429.04,396.79,422.56z"/>
				<polygon class="st5" points="380.75,226.03 394.11,218.18 180.8,95.02 167.44,102.87 				"/>
			</g>
		</g>
		<g>
			<g>
				<g>
					<polygon class="st5" points="123.07,298.61 356.3,432.94 356.3,271.26 123.07,136.94 					"/>
					<polygon class="st6" points="123.07,142.2 356.3,276.53 356.3,271.26 123.07,136.94 					"/>
					<polygon class="st7" points="123.07,153.66 356.3,287.99 356.3,276.53 123.07,142.2 					"/>
					
						<linearGradient id="SVGID_3_" gradientUnits="userSpaceOnUse" x1="260.3156" y1="424.6706" x2="260.3156" y2="174.8337" gradientTransform="matrix(-1 0 0 1 500 0)">
						<stop  offset="9.313420e-03" style="stop-color:#5620D8"/>
						<stop  offset="1" style="stop-color:#45677A"/>
					</linearGradient>
					<path class="st8" d="M356.3,287.99v144.95l-13.32-7.69c-10.48-6.05-16.94-17.23-16.94-29.34v-73.46l-30.26-17.47v51.82
						c0,9.59-6.77,13.45-15.13,8.63h0c-8.36-4.82-15.13-16.51-15.13-26.1V324.7c0-9.59-6.77-21.27-15.13-26.1h0
						c-8.36-4.82-15.13-0.96-15.13,8.63v30.54c0,11.24-12.16,18.26-21.89,12.64l-90.29-51.8V153.66L356.3,287.99z"/>
				</g>
				<g>
					<g>
						<path class="st9" d="M298.86,356.15l0-21.88h9.11l0,21.88c0.02,0.68-0.42,1.37-1.32,1.89c-1.77,1.02-4.66,1.02-6.44-0.01
							C299.3,357.51,298.86,356.83,298.86,356.15z"/>
						<path class="st10" d="M300.18,332.41c-1.77,1.02-1.76,2.69,0.02,3.72c1.78,1.03,4.67,1.04,6.44,0.01
							c1.77-1.02,1.76-2.69-0.02-3.72S301.96,331.38,300.18,332.41z"/>
					</g>
					<path class="st7" d="M286.29,307.25c0.79-0.46,1.82-0.39,2.82,0.18l32.71,19.19l-1,1.71l-32.7-19.19
						c-0.42-0.24-0.71-0.25-0.83-0.18c-0.12,0.07-0.25,0.31-0.25,0.79v2.94c0,1.27,0.97,2.94,2.07,3.57l12.24,7.11
						c1.72,0.99,3.07,3.32,3.07,5.29l-0.01,5.62c-0.01,0.14-0.1,0.27-0.28,0.38c-0.39,0.22-1.01,0.22-1.4,0
						c-0.18-0.1-0.27-0.24-0.28-0.37l-0.01-5.62c0-1.27-0.97-2.94-2.07-3.57l-12.24-7.11c-1.72-0.99-3.06-3.32-3.06-5.29v-2.94
						C285.05,308.62,285.5,307.71,286.29,307.25z"/>
					<path class="st11" d="M287.08,313.91c0-3.38,2.39-7.51,5.34-9.21c1.57-0.91,2.98-0.94,3.96-0.26l0-0.01l28.72,16.58
						l-7.58,13.01c0,0-21.13-12.38-28.71-16.6C287.78,316.85,287.08,315.7,287.08,313.91z"/>
					<g>
						<path class="st12" d="M326.65,324.44c0,3.38-2.39,7.51-5.34,9.21c-2.95,1.7-5.34,0.34-5.34-3.04c0-3.38,2.39-7.51,5.34-9.21
							C324.26,319.69,326.65,321.05,326.65,324.44z"/>
						<path class="st6" d="M323.11,326.48c0,1.14-0.81,2.53-1.8,3.1c-0.99,0.57-1.8,0.11-1.8-1.03s0.81-2.53,1.8-3.1
							C322.31,324.88,323.11,325.34,323.11,326.48z"/>
						<path class="st7" d="M322.43,326.87c0,0.71-0.5,1.57-1.12,1.93c-0.62,0.36-1.12,0.07-1.12-0.64s0.5-1.57,1.12-1.93
							C321.93,325.88,322.43,326.17,322.43,326.87z"/>
					</g>
				</g>
			</g>
			<g>
				<polygon class="st13" points="359.23,269.52 359.23,431.2 356.3,432.94 356.3,271.26 				"/>
				<polygon class="st14" points="359.23,269.52 356.3,271.26 123.07,136.94 126,134.87 				"/>
			</g>
		</g>
		<g>
			<g>
				<polygon class="st5" points="137.3,200.6 289.82,288.66 289.82,274.21 137.3,186.15 				"/>
				<text transform="matrix(-0.8715 -0.5031 0 1 240.1833 255.1934)" class="st6 st15 st16">www.website.com</text>
			</g>
			<polygon class="st17" points="291.56,273.2 289.82,274.21 137.3,186.15 139.04,185.14 			"/>
			<polygon class="st7" points="289.82,288.66 291.56,287.65 291.56,273.2 289.82,274.21 			"/>
		</g>
		<g>
			
				<linearGradient id="SVGID_4_" gradientUnits="userSpaceOnUse" x1="177.7122" y1="183.4893" x2="122.0694" y2="137.1203" gradientTransform="matrix(-1 0 0 1 500 0)">
				<stop  offset="9.313420e-03" style="stop-color:#174159"/>
				<stop  offset="1" style="stop-color:#2D80EA"/>
			</linearGradient>
			<polygon class="st18" points="337.88,154.5 396.79,188.51 396.79,137.4 337.88,103.39 			"/>
			<polygon class="st19" points="337.88,103.39 396.79,137.4 400.08,135.61 341.18,101.61 			"/>
			<polygon class="st20" points="400.08,186.72 396.79,188.51 396.79,137.4 400.08,135.61 			"/>
			<line class="st20" x1="372.9" y1="146.62" x2="376.2" y2="144.83"/>
			<g>
				<path class="st5" d="M348.46,138.76c0-0.01,0-0.02,0-0.02c0-8.13,5.74-11.4,12.83-7.31c5.14,2.97,9.57,9,11.62,15.19
					c1.03,0.15,2.15,0.55,3.31,1.22c5.21,3.01,9.43,10.29,9.43,16.27c0,5.98-4.22,8.38-9.43,5.38l-27.37-15.8
					c-3.54-2.04-6.41-7-6.41-11.06C342.44,138.71,345.1,137.06,348.46,138.76z"/>
				<g>
					<path class="st7" d="M348.46,138.74c0,0.01,0,0.02,0,0.02c-1.59-0.81-3.03-0.86-4.1-0.27l0-0.01l3.18-1.71
						c0.33-0.2,0.7-0.33,1.1-0.4C348.52,137.11,348.46,137.9,348.46,138.74z"/>
					<path class="st21" d="M385.64,164.11c0-5.98-4.22-13.26-9.43-16.27c-1.17-0.67-2.28-1.07-3.31-1.22
						c-2.05-6.19-6.48-12.22-11.62-15.19c-3.46-2-6.6-2.23-8.9-1.01v-0.01l3.25-1.76c2.31-1.25,5.46-1.02,8.94,0.99
						c5.14,2.97,9.57,9,11.62,15.19c1.03,0.15,2.15,0.55,3.31,1.22c5.21,3.01,9.43,10.29,9.43,16.27c0,2.98-1.05,5.08-2.75,6.05
						l-3.46,1.88v-0.01C384.52,169.3,385.64,167.18,385.64,164.11z"/>
				</g>
			</g>
		</g>
		<g>
			
				<linearGradient id="SVGID_5_" gradientUnits="userSpaceOnUse" x1="222.7144" y1="183.4893" x2="167.0716" y2="137.1203" gradientTransform="matrix(-1 0 0 1 500 0)">
				<stop  offset="9.313420e-03" style="stop-color:#5620D8"/>
				<stop  offset="1" style="stop-color:#2D80EA"/>
			</linearGradient>
			<polygon class="st22" points="292.88,154.5 351.78,188.51 351.78,137.4 292.88,103.39 			"/>
			<polygon class="st19" points="292.88,103.39 351.78,137.4 355.08,135.61 296.17,101.61 			"/>
			<polygon class="st20" points="355.08,186.72 351.78,188.51 351.78,137.4 355.08,135.61 			"/>
			<line class="st20" x1="327.9" y1="146.62" x2="331.19" y2="144.83"/>
		</g>
		<g>
			<polygon class="st6" points="110.43,223.7 200.48,276.13 202.19,275.15 112.14,222.72 			"/>
			<polygon class="st6" points="200.48,276.13 200.19,352.57 201.91,351.59 202.19,275.15 			"/>
			<g>
				
					<linearGradient id="SVGID_6_" gradientUnits="userSpaceOnUse" x1="344.6902" y1="347.3887" x2="344.6902" y2="112.2926" gradientTransform="matrix(-1 0 0 1 500 0)">
					<stop  offset="0" style="stop-color:#E148BE"/>
					<stop  offset="1" style="stop-color:#FAE54E"/>
				</linearGradient>
				<polygon class="st23" points="111.32,299.46 199.02,350.53 199.3,276.8 111.6,225.73 				"/>
				<g>
					<path class="st24" d="M110.43,223.7l90.05,52.44l-0.28,76.43l-90.05-52.44L110.43,223.7z M198.12,277.47l-85.35-49.7
						l-0.26,71.03l85.35,49.7L198.12,277.47z"/>
				</g>
			</g>
		</g>
		<g>
			<g>
				<g>
					
						<linearGradient id="SVGID_7_" gradientUnits="userSpaceOnUse" x1="151.5694" y1="68.8165" x2="117.8567" y2="133.6812" gradientTransform="matrix(-0.866 -0.5 0 1.1547 396.3662 344.9801)">
						<stop  offset="9.313420e-03" style="stop-color:#5620D8"/>
						<stop  offset="1" style="stop-color:#E148BE"/>
					</linearGradient>
					<path class="st25" d="M276.47,418.46c0-8.42,5.95-11.82,13.29-7.58c7.34,4.24,13.29,14.5,13.29,22.93
						c0,7.14-4.27,10.66-10.05,8.99l-3.25,4.58l-3.25-8.33C280.74,434.06,276.47,425.6,276.47,418.46z"/>
					<g>
						<path class="st5" d="M287.77,426.32c0,1.26,0.89,2.8,1.99,3.44c1.1,0.64,1.99,0.13,1.99-1.14s-0.89-2.8-1.99-3.44
							C288.66,424.55,287.77,425.06,287.77,426.32z"/>
						<path class="st5" d="M281.33,422.6c0,1.26,0.89,2.8,1.99,3.44c1.1,0.64,1.99,0.13,1.99-1.14c0-1.26-0.89-2.8-1.99-3.44
							C282.22,420.83,281.33,421.34,281.33,422.6z"/>
						<path class="st5" d="M298.19,432.34c0,1.26-0.89,1.77-1.99,1.14c-1.1-0.64-1.99-2.18-1.99-3.44s0.89-1.77,1.99-1.14
							C297.3,429.54,298.19,431.08,298.19,432.34z"/>
					</g>
				</g>
				<g>
					<path class="st26" d="M303.05,433.81c0-8.42-5.95-18.69-13.29-22.93c-3.66-2.11-6.98-2.33-9.38-0.97
						c0.69-0.4,3.58-2.06,3.58-2.06c2.4-1.34,5.71-1.12,9.35,0.98c7.34,4.24,13.29,14.5,13.29,22.93c0,4.17-1.46,7.1-3.82,8.49
						l-3.63,2.1C301.56,440.98,303.05,438.02,303.05,433.81z"/>
					<path class="st26" d="M280.23,410L280.23,410c0-0.01,0.04-0.03,0.11-0.07C280.3,409.96,280.26,409.98,280.23,410z"/>
					<path class="st26" d="M292.57,443.43l0.44-0.62c0.63,0.18,1.25,0.3,1.84,0.36l-1.54,2.17l-3.55,2.05L292.57,443.43
						L292.57,443.43z"/>
				</g>
			</g>
			<g>
				<g>
					
						<linearGradient id="SVGID_8_" gradientUnits="userSpaceOnUse" x1="182.5614" y1="82.337" x2="148.8487" y2="147.2018" gradientTransform="matrix(-0.866 -0.5 0 1.1547 396.3662 344.9801)">
						<stop  offset="9.313420e-03" style="stop-color:#5620D8"/>
						<stop  offset="1" style="stop-color:#E148BE"/>
					</linearGradient>
					<path class="st27" d="M243.54,399.45c0-8.42,5.95-11.82,13.29-7.58c7.34,4.24,13.29,14.5,13.29,22.93
						c0,7.14-4.27,10.66-10.05,8.99l-3.25,4.58l-3.25-8.33C247.82,415.05,243.54,406.59,243.54,399.45z"/>
					<path class="st5" d="M256.83,413.83c-3.58-3.69-6.35-11.58-4.2-12.71c1.67-0.87,4.2,4.89,4.2,4.89s2.53-2.84,4.2-0.04
						C263.19,409.58,260.42,414.28,256.83,413.83z"/>
				</g>
				<g>
					<path class="st26" d="M270.13,414.8c0-8.42-5.95-18.69-13.29-22.93c-3.66-2.11-6.98-2.33-9.38-0.97
						c0.69-0.4,3.58-2.06,3.58-2.06c2.4-1.34,5.71-1.12,9.35,0.98c7.34,4.24,13.29,14.5,13.29,22.93c0,4.17-1.46,7.1-3.82,8.49
						l-3.63,2.1C268.64,421.97,270.13,419.02,270.13,414.8z"/>
					<path class="st26" d="M247.3,390.99L247.3,390.99c0-0.01,0.04-0.03,0.11-0.07C247.37,390.95,247.34,390.97,247.3,390.99z"/>
					<path class="st26" d="M259.64,424.42l0.44-0.62c0.63,0.18,1.25,0.3,1.84,0.36l-1.54,2.17l-3.55,2.05L259.64,424.42
						L259.64,424.42z"/>
				</g>
			</g>
			<g>
				<g>
					
						<linearGradient id="SVGID_9_" gradientUnits="userSpaceOnUse" x1="213.5533" y1="95.8577" x2="179.8405" y2="160.7225" gradientTransform="matrix(-0.866 -0.5 0 1.1547 396.3662 344.9801)">
						<stop  offset="9.313420e-03" style="stop-color:#5620D8"/>
						<stop  offset="1" style="stop-color:#E148BE"/>
					</linearGradient>
					<path class="st28" d="M210.62,380.44c0-8.42,5.95-11.82,13.29-7.58c7.34,4.24,13.29,14.5,13.29,22.93
						c0,7.14-4.27,10.66-10.05,8.99l-3.25,4.58l-3.25-8.33C214.89,396.04,210.62,387.58,210.62,380.44z"/>
					<g>
						<path class="st5" d="M226.32,389.56c0,1.51,0.77,3.19,1.73,3.74c0.95,0.55,1.73-0.23,1.73-1.74c0-1.51-0.77-3.19-1.73-3.74
							C227.1,387.26,226.32,388.05,226.32,389.56z"/>
						<path class="st5" d="M221.5,386.77c0,1.51-0.77,2.3-1.73,1.74c-0.95-0.55-1.73-2.23-1.73-3.74s0.77-2.3,1.73-1.74
							C220.72,383.59,221.5,385.26,221.5,386.77z"/>
						<g>
							<path class="st5" d="M223.91,392.51c0.99,0.57,1.79,0.11,1.79-1.02c0-0.2-0.14-0.45-0.32-0.55c-0.18-0.1-0.32-0.02-0.32,0.18
								c0,0.73-0.52,1.03-1.16,0.66c-0.64-0.37-1.16-1.27-1.16-2c0-0.2-0.14-0.45-0.32-0.55c-0.18-0.1-0.32-0.02-0.32,0.18
								C222.12,390.55,222.92,391.94,223.91,392.51z"/>
						</g>
					</g>
				</g>
				<g>
					<path class="st26" d="M237.2,395.79c0-8.42-5.95-18.69-13.29-22.93c-3.66-2.11-6.98-2.33-9.38-0.97
						c0.69-0.4,3.58-2.06,3.58-2.06c2.4-1.34,5.71-1.12,9.35,0.98c7.34,4.24,13.29,14.5,13.29,22.93c0,4.17-1.46,7.1-3.82,8.49
						l-3.63,2.1C235.71,402.96,237.2,400.01,237.2,395.79z"/>
					<path class="st26" d="M214.38,371.99L214.38,371.99c0-0.01,0.04-0.03,0.11-0.07C214.45,371.94,214.42,371.96,214.38,371.99z"/>
					<path class="st26" d="M226.72,405.41l0.44-0.62c0.63,0.18,1.25,0.3,1.84,0.36l-1.54,2.17l-3.55,2.05L226.72,405.41
						L226.72,405.41z"/>
				</g>
			</g>
		</g>
		<g>
			<polygon class="st6" points="90.14,235.4 180.19,287.84 181.9,286.86 91.85,234.42 			"/>
			<polygon class="st6" points="180.19,287.84 179.91,364.27 181.62,363.29 181.9,286.86 			"/>
			<g>
				
					<linearGradient id="SVGID_10_" gradientUnits="userSpaceOnUse" x1="369.1927" y1="306.8113" x2="348.4874" y2="272.5405" gradientTransform="matrix(-1 0 0 1 500 0)">
					<stop  offset="0" style="stop-color:#FFFFFF"/>
					<stop  offset="1" style="stop-color:#2D80EA"/>
				</linearGradient>
				<polygon class="st29" points="91.03,311.17 178.74,362.24 179.01,288.51 91.31,237.43 				"/>
				
					<ellipse transform="matrix(0.8652 -0.5015 0.5015 0.8652 -136.8862 109.3899)" class="st9" cx="134.99" cy="309.26" rx="9.72" ry="16.84"/>
				
					<linearGradient id="SVGID_11_" gradientUnits="userSpaceOnUse" x1="369.2578" y1="329.5171" x2="356.8822" y2="310.2258" gradientTransform="matrix(-1 0 0 1 500 0)">
					<stop  offset="0" style="stop-color:#174159"/>
					<stop  offset="1" style="stop-color:#F2F2F2"/>
				</linearGradient>
				<polygon class="st30" points="91.14,283.72 178.84,334.79 178.74,362.24 91.03,311.17 				"/>
				
					<linearGradient id="SVGID_12_" gradientUnits="userSpaceOnUse" x1="363.0579" y1="333.4944" x2="350.6823" y2="314.2031" gradientTransform="matrix(-1 0 0 1 500 0)">
					<stop  offset="0" style="stop-color:#174159"/>
					<stop  offset="1" style="stop-color:#FAE54E"/>
				</linearGradient>
				<polygon class="st31" points="146.91,316.2 178.74,362.24 91.03,311.17 123.07,302.32 				"/>
				<g>
					<polygon class="st32" points="91.14,283.68 91.2,269.64 103.72,291.08 					"/>
					<polygon class="st32" points="98.29,287.9 104.63,284.55 110.9,295.27 					"/>
				</g>
				<g>
					<polygon class="st32" points="178.84,334.76 178.88,320.7 166.25,327.48 					"/>
					<polygon class="st32" points="171.68,330.63 165.39,319.93 159.08,323.33 					"/>
				</g>
				<g>
					<path class="st24" d="M90.14,235.4l90.05,52.44l-0.28,76.43l-90.05-52.44L90.14,235.4z M177.83,289.17l-85.35-49.7l-0.26,71.03
						l85.35,49.7L177.83,289.17z"/>
				</g>
			</g>
		</g>
		<g>
			<g>
				
					<linearGradient id="SVGID_13_" gradientUnits="userSpaceOnUse" x1="325.3581" y1="444.982" x2="325.3581" y2="348.5671" gradientTransform="matrix(-1 0 0 1 500 0)">
					<stop  offset="0" style="stop-color:#E148BE"/>
					<stop  offset="1" style="stop-color:#FAE54E"/>
				</linearGradient>
				<polygon class="st33" points="151.96,410.41 197.32,436.6 197.32,395.03 151.96,368.84 				"/>
			</g>
			<polygon class="st34" points="151.96,368.84 197.32,395.03 200.41,393.36 155.04,367.16 			"/>
			<polygon class="st35" points="200.41,434.93 197.32,436.6 197.32,395.03 200.41,393.36 			"/>
			<g>
				<polygon class="st36" points="176.63,414.27 179.71,412.59 179.71,397.99 166.56,397.7 163.47,399.37 176.63,399.66 				"/>
				<polygon class="st5" points="163.47,399.37 176.63,399.66 176.63,414.27 				"/>
			</g>
		</g>
		<g>
			<g>
				
					<linearGradient id="SVGID_14_" gradientUnits="userSpaceOnUse" x1="380.9599" y1="520.0544" x2="380.9599" y2="420.9863" gradientTransform="matrix(-1 0 0 1 500 0)">
					<stop  offset="0" style="stop-color:#174159"/>
					<stop  offset="1" style="stop-color:#F2F2F2"/>
				</linearGradient>
				<path class="st37" d="M139.59,365.49v65.42c1.69,9.42-6.77,10.52-6.77,10.52l-34.56-19.95v-12.19v-67.66L139.59,365.49z"/>
				<g>
					<polygon class="st7" points="104.59,376.68 133.27,393.24 133.27,390.68 104.59,374.12 					"/>
					<polygon class="st7" points="104.59,381.53 133.27,398.09 133.27,395.52 104.59,378.96 					"/>
					<polygon class="st7" points="104.59,386.37 133.27,402.93 133.27,400.37 104.59,383.81 					"/>
					<polygon class="st7" points="104.59,391.21 133.27,407.78 133.27,405.21 104.59,388.65 					"/>
					<polygon class="st7" points="104.59,396.06 133.27,412.62 133.27,410.06 104.59,393.5 					"/>
					<polygon class="st7" points="104.59,400.9 133.27,417.46 133.27,414.9 104.59,398.34 					"/>
					<polygon class="st7" points="104.59,405.75 133.27,422.31 133.27,419.75 104.59,403.18 					"/>
					<g>
						<text transform="matrix(-0.8715 -0.5031 0 1 122.8971 379.336)" class="st7 st38 st39">T</text>
					</g>
				</g>
			</g>
			<polygon class="st7" points="141.28,433.15 139.59,433.15 139.59,365.49 141.28,364.51 			"/>
			<polygon class="st40" points="141.28,364.51 139.59,365.49 98.26,341.63 99.96,340.65 			"/>
			<g>
				<path class="st7" d="M134.34,441.83c0.73,0,1.51-0.23,2.31-0.69c2.6-1.5,4.63-5.01,4.63-7.99h-1.69c0,2.35-1.73,5.34-3.78,6.52
					c-0.84,0.49-1.62,0.6-2.14,0.3c-0.51-0.29-0.8-1.01-0.8-1.96c0-2.35,1.73-5.34,3.78-6.52l-0.85-1.46
					c-2.6,1.5-4.63,5.01-4.63,7.99c0,1.6,0.58,2.82,1.65,3.43C133.28,441.7,133.8,441.83,134.34,441.83z"/>
			</g>
			<path class="st40" d="M94.48,406.16l41.33,23.86c-2.01,1.16-3.67,3.52-4.33,5.9l0,0l0,0c-0.19,0.7-0.3,1.4-0.3,2.08
				c0,1.6,0.58,2.82,1.65,3.43L91.5,417.57c-1.06-0.61-1.65-1.83-1.65-3.43C89.85,411.16,91.89,407.66,94.48,406.16z"/>
		</g>
		<g>
			<g>
				<path class="st6" d="M223.09,138.7c-4.21-2.43-7.63-8.32-7.63-13.15c0-4.83,3.41-6.78,7.63-4.35c0.58,0.33,1.14,0.74,1.67,1.19
					c0.66,3.64,2.9,7.5,5.75,9.88c0.13,0.71,0.2,1.41,0.2,2.09C230.72,139.19,227.3,141.13,223.09,138.7z"/>
				<path class="st6" d="M209.33,106.29L209.33,106.29l0.02-0.01C209.34,106.28,209.33,106.29,209.33,106.29z"/>
				<path class="st6" d="M242.51,141.17L242.51,141.17c0-4.17-15.83-31.42-19.42-33.49c-5.36-3.09-10.2-3.4-13.72-1.41l8.43-4.83
					c3.55-2.44,8.68-2.3,14.39,0.99c10.72,6.19,19.42,21.19,19.42,33.49l0,0c0,7.25-1.98,15.58-9.7,19.86l-8.81,5.08
					C240.57,156.53,242.51,148.32,242.51,141.17z"/>
				<path class="st6" d="M232.75,161.06l-0.04,0.02l0,0C232.72,161.07,232.74,161.07,232.75,161.06z"/>
			</g>
			
				<linearGradient id="SVGID_15_" gradientUnits="userSpaceOnUse" x1="267.3366" y1="166.5441" x2="293.3033" y2="70.0965" gradientTransform="matrix(-1 0 0 1 500 0)">
				<stop  offset="0" style="stop-color:#2D80EA"/>
				<stop  offset="1" style="stop-color:#FAE54E"/>
			</linearGradient>
			<path class="st41" d="M203.67,118.74C203.67,118.74,203.67,118.75,203.67,118.74c0,9.66,3.52,25.29,19.42,45.02
				c15.9-1.37,19.42-12.94,19.42-22.6l0,0c0-12.31-8.69-27.3-19.42-33.49C212.37,101.48,203.67,106.44,203.67,118.74z
				 M215.47,125.55c0-4.83,3.41-6.78,7.63-4.35c4.21,2.43,7.63,8.32,7.63,13.15s-3.41,6.78-7.63,4.35
				C218.88,136.27,215.47,130.38,215.47,125.55z"/>
		</g>
		<g>
			<g>
				<polygon class="st21" points="339.38,160.97 335.85,156.82 335.85,156.82 327.24,146.67 330.53,144.89 342.67,159.19 
					342.67,161.27 339.38,163.06 339.38,161.34 339.38,161.34 				"/>
				<path class="st7" d="M333.98,158.89c-0.65-0.2-1.23-0.31-1.74-0.32l-4.26,0.19c-0.19,0-0.32,0.04-0.43,0.12l-0.02-0.01
					l3.33-1.81l0,0.02c0.11-0.06,0.24-0.11,0.41-0.1l0.75-0.03l0.21,0.25C332.75,157.78,333.33,158.34,333.98,158.89z"/>
			</g>
			<path class="st21" d="M316.64,136.55c-0.2-0.7-0.5-1.32-0.91-1.87c-0.41-0.55-0.88-0.97-1.42-1.29l-1.98-1.14l0,0l3.29-1.79
				l1.98,1.14c0.54,0.31,1.01,0.74,1.42,1.29c0.41,0.55,0.71,1.17,0.91,1.87l8.51,30.56l-3.29,1.79l0-0.01L316.64,136.55z"/>
			<g>
				<path class="st21" d="M313.22,139.51l0,0.02l-3.38,1.83v0c0.09-0.04,0.17-0.1,0.23-0.17c0.12-0.16,0.17-0.37,0.17-0.63v-3.7
					l-12.14,0.28l3.29-1.79l11.71-0.27l0.43,1.54v2.15c0,0.26-0.06,0.47-0.17,0.63C313.32,139.45,313.27,139.48,313.22,139.51z"/>
				<path class="st21" d="M310.07,148.98c-0.11-0.29-0.31-0.59-0.58-0.89l-4.26-5.11c-0.51-0.58-1.09-1.14-1.74-1.69
					c0.65,0.2,1.23,0.31,1.74,0.32l3.52-0.14l4.03,4.84c0.27,0.31,0.46,0.6,0.58,0.89c0.12,0.29,0.17,0.57,0.17,0.83v3.7l-3.29,1.79
					v-3.7C310.24,149.55,310.18,149.27,310.07,148.98z"/>
			</g>
			<g>
				<path class="st5" d="M327.98,152.11c-0.27-0.32-0.46-0.62-0.58-0.91c-0.11-0.29-0.17-0.57-0.17-0.83v-3.7l12.14,14.3v2.08
					l-12.14,0.27v-3.7c0-0.26,0.06-0.47,0.17-0.63c0.12-0.16,0.31-0.23,0.58-0.23l4.26-0.19c0.51,0.01,1.09,0.11,1.74,0.32
					c-0.65-0.55-1.23-1.11-1.74-1.69L327.98,152.11z"/>
				<path class="st5" d="M312.32,132.25l1.98,1.14c0.54,0.31,1.01,0.74,1.42,1.29c0.41,0.55,0.71,1.17,0.91,1.87l8.51,30.56
					l-1.98-1.14c-0.24-0.14-0.48-0.32-0.73-0.54c-0.24-0.22-0.47-0.47-0.69-0.76c-0.21-0.28-0.41-0.6-0.59-0.94
					c-0.17-0.34-0.32-0.7-0.43-1.07L312.32,132.25z"/>
				<path class="st5" d="M310.24,136.86v3.7c0,0.26-0.06,0.47-0.17,0.63c-0.11,0.16-0.31,0.24-0.58,0.24l-4.26,0.17
					c-0.51-0.01-1.09-0.11-1.74-0.32c0.65,0.55,1.23,1.11,1.74,1.69l4.26,5.11c0.27,0.31,0.46,0.6,0.58,0.89
					c0.12,0.29,0.17,0.57,0.17,0.83v3.7l-12.14-14.29v-2.08L310.24,136.86z"/>
			</g>
		</g>
		<g>
			<g>
				
					<rect x="291.64" y="226.79" transform="matrix(0.8651 -0.5016 0.5016 0.8651 -79.5735 180.3926)" class="st26" width="7.9" height="22.69"/>
			</g>
			<g>
				
					<linearGradient id="SVGID_16_" gradientUnits="userSpaceOnUse" x1="192.5589" y1="401.2048" x2="192.5589" y2="236.7517" gradientTransform="matrix(-1 0 0 1 500 0)">
					<stop  offset="0" style="stop-color:#2D80EA"/>
					<stop  offset="1" style="stop-color:#E148BE"/>
				</linearGradient>
				<path class="st42" d="M308.22,274.89l-14.45-24.92c-2.07-3.58-0.84-8.16,2.75-10.2l0,0c3.55-2.03,8.08-0.81,10.13,2.73
					l14.45,24.92l0,0c1.29,2.23,1.36,4.93,0.1,7.32c-0.3,0.58-0.69,1.11-1.15,1.57c-1.54,1.56-3.47,2.28-5.37,2.28
					C312.11,278.59,309.6,277.26,308.22,274.89z M314.27,271.38L314.27,271.38C314.27,271.38,314.27,271.38,314.27,271.38
					L314.27,271.38z"/>
			</g>
			<g>
				<g>
					
						<linearGradient id="SVGID_17_" gradientUnits="userSpaceOnUse" x1="217.1779" y1="233.1076" x2="248.4463" y2="157.7526" gradientTransform="matrix(-1 0 0 1 500 0)">
						<stop  offset="9.313420e-03" style="stop-color:#174159"/>
						<stop  offset="1" style="stop-color:#2D80EA"/>
					</linearGradient>
					<path class="st43" d="M269.41,232.21c-12.46-7.2-22.23-24.04-22.23-38.35c0-10.32,4.93-14.71,7.86-16.4
						c2.96-1.71,9.27-3.79,18.32,1.44c12.46,7.2,22.23,24.04,22.23,38.35c0,10.32-4.93,14.71-7.86,16.4
						c-1.55,0.89-4.01,1.89-7.3,1.89C277.42,235.53,273.73,234.7,269.41,232.21z M259,184.3c-2.49,1.43-3.91,4.92-3.91,9.56
						c0,11.36,8.37,25.79,18.27,31.51c4.1,2.37,7.89,2.89,10.41,1.44c2.49-1.43,3.91-4.92,3.91-9.56c0-11.36-8.37-25.79-18.28-31.51
						c-2.57-1.49-5.03-2.24-7.12-2.24C261.05,183.49,259.94,183.76,259,184.3z"/>
				</g>
				<g>
					<path class="st26" d="M295.59,217.24c0-14.31-9.76-31.16-22.23-38.35c-9.05-5.22-15.36-3.14-18.32-1.44l9.68-5.59
						c2.96-1.71,9.27-3.79,18.32,1.44c12.46,7.2,22.23,24.04,22.23,38.35c0,10.32-4.93,14.71-7.86,16.4l-9.68,5.59
						C290.66,231.95,295.59,227.56,295.59,217.24z"/>
					<path class="st26" d="M283.78,226.8c-2.52,1.45-6.31,0.93-10.41-1.44c-9.91-5.72-18.27-20.15-18.27-31.51
						c0-4.64,1.42-8.12,3.91-9.56c0.94-0.54,2.05-0.81,3.3-0.81c0.92,0,1.92,0.16,2.97,0.45c-0.32,1.28-0.49,2.74-0.49,4.33
						c0,11.36,8.37,25.79,18.28,31.51c1.43,0.83,2.83,1.42,4.15,1.79C286.58,224.03,285.41,225.86,283.78,226.8z"/>
				</g>
				<path class="st7" d="M256.43,193c0,11.66,8.24,25.87,18.4,31.73c10.16,5.87,18.4,1.17,18.4-10.49c0-11.66-8.24-25.87-18.4-31.73
					C264.66,176.65,256.43,181.34,256.43,193z"/>
				<g>
					
						<linearGradient id="SVGID_18_" gradientUnits="userSpaceOnUse" x1="239.8821" y1="131.2288" x2="220.8644" y2="256.6549" gradientTransform="matrix(-1 0 0 1 500 0)">
						<stop  offset="0" style="stop-color:#2D80EA"/>
						<stop  offset="1" style="stop-color:#E148BE"/>
					</linearGradient>
					<path class="st44" d="M269.41,232.21c-12.46-7.2-22.23-24.04-22.23-38.35c0-10.32,4.93-14.71,7.86-16.4
						c2.96-1.71,9.27-3.79,18.32,1.44c12.46,7.2,22.23,24.04,22.23,38.35c0,10.32-4.93,14.71-7.86,16.4
						c-1.55,0.89-4.01,1.89-7.3,1.89C277.42,235.53,273.73,234.7,269.41,232.21z M259,184.3c-2.49,1.43-3.91,4.92-3.91,9.56
						c0,11.36,8.37,25.79,18.27,31.51c4.1,2.37,7.89,2.89,10.41,1.44c2.49-1.43,3.91-4.92,3.91-9.56c0-11.36-8.37-25.79-18.28-31.51
						c-2.57-1.49-5.03-2.24-7.12-2.24C261.05,183.49,259.94,183.76,259,184.3z"/>
				</g>
				<path class="st7" d="M259.99,189.37c-0.41,1.78-0.45,3.52-0.3,5.18c0.15,1.66,0.49,3.27,0.95,4.8c0.93,3.08,2.35,5.9,4.04,8.49
					c-1.06-2.9-1.77-5.9-1.95-8.87c-0.09-1.48-0.05-2.95,0.15-4.36c0.2-1.4,0.57-2.75,1.15-3.88c0.53-1.06,0.11-2.35-0.95-2.89
					c-1.06-0.53-2.35-0.11-2.89,0.95c-0.08,0.15-0.13,0.31-0.17,0.47L259.99,189.37z"/>
			</g>
		</g>
	</g>
	<text transform="matrix(1 0 0 1 159.5188 64.999)" class="st0"><tspan x="0" y="0" class="st45 st46 st47 st48">web design concep</tspan><tspan x="174" y="0" class="st45 st46 st47">t</tspan></text>
</g>
<g id="DESIGNED_BY_FREEPIK" class="st0">
	<g class="st49">
		<g>
			<g id="XMLID_225_">
				<g id="XMLID_244_">
					<path id="XMLID_252_" class="st50" d="M260.1,466.47c-0.43,0.44-0.8,0.93-1.11,1.45l-0.47-0.24c-0.07-0.3-0.35-0.5-0.66-0.47
						c-0.33,0.04-0.57,0.34-0.53,0.67c0.04,0.33,0.34,0.57,0.67,0.53c0.07-0.01,0.13-0.03,0.18-0.05l0.45,0.23
						c-0.25,0.55-0.43,1.14-0.54,1.74l0.75,0.13c0.23-1.31,0.85-2.51,1.79-3.47L260.1,466.47z"/>
					<path id="XMLID_251_" class="st50" d="M265.59,464.16c-0.17,0-0.34,0.01-0.51,0.02l-0.07-0.63c0.19-0.15,0.3-0.39,0.27-0.64
						c-0.05-0.39-0.4-0.67-0.8-0.63c-0.39,0.05-0.67,0.4-0.63,0.8c0.03,0.25,0.19,0.46,0.4,0.56l0.07,0.62
						c-0.71,0.12-1.4,0.33-2.06,0.65l0.33,0.68c0.93-0.45,1.94-0.67,3-0.67c0.5,0,0.99,0.05,1.48,0.16l0.16-0.74
						C266.69,464.22,266.14,464.16,265.59,464.16z"/>
					<path id="XMLID_250_" class="st50" d="M272.19,466.71c0.33-0.04,0.57-0.34,0.53-0.67c-0.04-0.33-0.34-0.57-0.67-0.53
						c-0.31,0.04-0.54,0.3-0.53,0.61l-0.42,0.36c-0.42-0.43-0.89-0.81-1.41-1.14l-0.4,0.64c1.13,0.71,2.02,1.73,2.56,2.93l0.69-0.31
						c-0.25-0.55-0.57-1.07-0.94-1.55l0.4-0.35C272.06,466.72,272.13,466.72,272.19,466.71z"/>
					<path id="XMLID_249_" class="st50" d="M265.04,474.37c-0.39,0.02-0.77,0.03-1.16,0.03c-0.88,0-1.73-0.06-2.48-0.18
						c-0.39-0.06-0.85-0.15-1.27-0.29c1.05,1.86,3.07,3.13,5.39,3.13c2.86,0,5.26-1.92,5.95-4.5c-0.68,0.45-1.51,0.83-2.46,1.12
						C267.84,474.05,266.46,474.29,265.04,474.37z"/>
					<path id="XMLID_245_" class="st50" d="M265.59,465.68c-3.35,0-6.08,2.67-6.08,5.94c0,0.43,0.05,0.85,0.14,1.26
						c0.67,0.48,2.71,0.89,5.35,0.73c2.88-0.17,5.3-0.96,6.67-2.16c-0.01-0.2-0.02-0.39-0.05-0.58
						C271.24,467.91,268.65,465.68,265.59,465.68z M263.43,472.19c-1.02,0-1.85-0.83-1.85-1.85c0-1.02,0.83-1.85,1.85-1.85
						c1.02,0,1.85,0.83,1.85,1.85C265.28,471.36,264.45,472.19,263.43,472.19z M268.17,471.29c-0.75,0-1.36-0.61-1.36-1.36
						c0-0.75,0.61-1.36,1.36-1.36c0.75,0,1.36,0.61,1.36,1.36C269.53,470.68,268.92,471.29,268.17,471.29z"/>
				</g>
				<path id="XMLID_242_" class="st50" d="M281.6,467.55c-0.29-0.12-0.81-0.31-1.38-0.24c-0.55,0.07-0.84,0.34-0.84,1.01v0.87h2.23
					v1.72h-2.23v5.45h-1.93v-5.45h-1.34v-1.72h1.34v-0.89c0-1.68,0.9-2.78,2.57-2.78c0.64,0,1.16,0.12,1.59,0.31L281.6,467.55z"/>
				<path id="XMLID_240_" class="st50" d="M286.3,470.88c-0.18-0.03-0.36-0.05-0.53-0.05c-0.9,0-1.51,0.55-1.51,1.61v3.91h-1.93
					v-7.17h1.87v0.78c0.45-0.67,1.14-0.98,2.02-0.98c0.41,0,0.85,0.13,1.09,0.34L286.3,470.88z"/>
				<path id="XMLID_237_" class="st50" d="M293.97,472.76c0,0.22-0.01,0.49-0.04,0.65h-5.08c0.21,1.04,0.93,1.49,1.84,1.49
					c0.62,0,1.3-0.25,1.81-0.69l1.13,1.24c-0.81,0.75-1.85,1.09-3.06,1.09c-2.2,0-3.72-1.5-3.72-3.75c0-2.26,1.48-3.8,3.63-3.8
					C292.54,468.99,293.96,470.52,293.97,472.76z M288.85,472.09h3.18c-0.18-0.92-0.73-1.44-1.56-1.44
					C289.55,470.65,289.02,471.2,288.85,472.09z"/>
				<path id="XMLID_234_" class="st50" d="M301.62,472.76c0,0.22-0.02,0.49-0.04,0.65h-5.08c0.21,1.04,0.93,1.49,1.84,1.49
					c0.62,0,1.3-0.25,1.81-0.69l1.13,1.24c-0.81,0.75-1.85,1.09-3.06,1.09c-2.2,0-3.72-1.5-3.72-3.75c0-2.26,1.48-3.8,3.63-3.8
					C300.2,468.99,301.61,470.52,301.62,472.76z M296.5,472.09h3.18c-0.18-0.92-0.73-1.44-1.56-1.44
					C297.21,470.65,296.67,471.2,296.5,472.09z"/>
				<path id="XMLID_231_" class="st50" d="M309.96,472.76c0,2.15-1.5,3.77-3.47,3.77c-0.96,0-1.64-0.38-2.11-0.93v3.71h-1.92v-10.13
					h1.89v0.79c0.47-0.58,1.15-0.98,2.14-0.98C308.47,468.99,309.96,470.61,309.96,472.76z M304.29,472.76
					c0,1.13,0.75,1.98,1.84,1.98c1.14,0,1.85-0.88,1.85-1.98c0-1.1-0.71-1.98-1.85-1.98C305.03,470.79,304.29,471.63,304.29,472.76z
					"/>
				<path id="XMLID_228_" class="st50" d="M313.07,466.84c0,0.7-0.54,1.23-1.24,1.23c-0.7,0-1.23-0.53-1.23-1.23
					c0-0.7,0.53-1.24,1.23-1.24C312.53,465.59,313.07,466.14,313.07,466.84z M312.81,476.35h-1.93v-7.17h1.93V476.35z"/>
				<path id="XMLID_226_" class="st50" d="M316.03,471.74l2.7-2.55h2.37l-3.48,3.38l3.5,3.8h-2.38l-2.72-2.9v2.9h-1.93V465.7h1.93
					V471.74z"/>
			</g>
			<g>
				<path class="st50" d="M184.41,476.29v-1.05c-0.53,0.72-1.39,1.23-2.39,1.23c-1.85,0-3.15-1.41-3.15-3.71
					c0-2.26,1.29-3.72,3.15-3.72c0.95,0,1.82,0.47,2.39,1.25v-3.76h1.1v9.77H184.41z M184.41,474.37v-3.21
					c-0.4-0.62-1.24-1.14-2.12-1.14c-1.42,0-2.27,1.17-2.27,2.74c0,1.57,0.85,2.72,2.27,2.72
					C183.17,475.48,184.02,474.99,184.41,474.37z"/>
				<path class="st50" d="M186.93,472.74c0-2.05,1.46-3.71,3.49-3.71c2.14,0,3.4,1.67,3.4,3.79v0.28h-5.73
					c0.09,1.33,1.03,2.45,2.55,2.45c0.81,0,1.63-0.32,2.18-0.89l0.53,0.72c-0.7,0.7-1.65,1.08-2.81,1.08
					C188.44,476.46,186.93,474.96,186.93,472.74z M190.4,469.95c-1.51,0-2.26,1.27-2.31,2.36h4.64
					C192.72,471.25,192.01,469.95,190.4,469.95z"/>
				<path class="st50" d="M194.61,475.35l0.57-0.79c0.47,0.54,1.36,1.01,2.33,1.01c1.08,0,1.67-0.51,1.67-1.22
					c0-1.71-4.38-0.66-4.38-3.28c0-1.1,0.95-2.04,2.64-2.04c1.2,0,2.05,0.45,2.62,1.03l-0.51,0.76c-0.42-0.51-1.2-0.89-2.11-0.89
					c-0.97,0-1.57,0.48-1.57,1.11c0,1.55,4.38,0.53,4.38,3.28c0,1.19-0.95,2.14-2.78,2.14
					C196.31,476.46,195.32,476.11,194.61,475.35z"/>
				<path class="st50" d="M201.48,467.47c0-0.41,0.34-0.75,0.73-0.75c0.41,0,0.75,0.34,0.75,0.75c0,0.41-0.34,0.73-0.75,0.73
					C201.81,468.2,201.48,467.88,201.48,467.47z M201.67,476.29v-7.07h1.1v7.07H201.67z"/>
				<path class="st50" d="M204.58,478.11l0.56-0.82c0.59,0.7,1.29,0.97,2.3,0.97c1.17,0,2.27-0.57,2.27-2.12v-1.01
					c-0.51,0.72-1.38,1.26-2.37,1.26c-1.85,0-3.15-1.38-3.15-3.66c0-2.27,1.29-3.68,3.15-3.68c0.95,0,1.8,0.47,2.37,1.25v-1.07h1.1
					v6.87c0,2.34-1.64,3.08-3.37,3.08C206.24,479.16,205.42,478.93,204.58,478.11z M209.71,474.25v-3.09
					c-0.38-0.62-1.23-1.14-2.11-1.14c-1.42,0-2.27,1.13-2.27,2.7c0,1.55,0.85,2.7,2.27,2.7
					C208.48,475.41,209.33,474.87,209.71,474.25z"/>
				<path class="st50" d="M217.41,476.29v-4.63c0-1.24-0.63-1.64-1.58-1.64c-0.86,0-1.68,0.53-2.09,1.1v5.17h-1.1v-7.07h1.1v1.03
					c0.5-0.59,1.46-1.2,2.52-1.2c1.48,0,2.26,0.75,2.26,2.29v4.97H217.41z"/>
				<path class="st50" d="M219.93,472.74c0-2.05,1.46-3.71,3.49-3.71c2.14,0,3.4,1.67,3.4,3.79v0.28h-5.73
					c0.09,1.33,1.03,2.45,2.55,2.45c0.81,0,1.63-0.32,2.18-0.89l0.53,0.72c-0.7,0.7-1.66,1.08-2.81,1.08
					C221.44,476.46,219.93,474.96,219.93,472.74z M223.4,469.95c-1.51,0-2.26,1.27-2.31,2.36h4.64
					C225.72,471.25,225.02,469.95,223.4,469.95z"/>
				<path class="st50" d="M233.35,476.29v-1.05c-0.53,0.72-1.39,1.23-2.39,1.23c-1.85,0-3.15-1.41-3.15-3.71
					c0-2.26,1.29-3.72,3.15-3.72c0.95,0,1.82,0.47,2.39,1.25v-3.76h1.1v9.77H233.35z M233.35,474.37v-3.21
					c-0.4-0.62-1.25-1.14-2.12-1.14c-1.42,0-2.27,1.17-2.27,2.74c0,1.57,0.85,2.72,2.27,2.72
					C232.1,475.48,232.95,474.99,233.35,474.37z"/>
				<path class="st50" d="M239.69,476.29v-9.77h1.1v3.76c0.57-0.78,1.42-1.25,2.39-1.25c1.85,0,3.15,1.46,3.15,3.72
					c0,2.3-1.3,3.71-3.15,3.71c-1,0-1.86-0.51-2.39-1.23v1.05H239.69z M242.9,475.48c1.44,0,2.29-1.16,2.29-2.72
					c0-1.57-0.85-2.74-2.29-2.74c-0.86,0-1.73,0.53-2.11,1.14v3.21C241.17,474.99,242.04,475.48,242.9,475.48z"/>
				<path class="st50" d="M247.53,478.06c0.16,0.07,0.43,0.12,0.6,0.12c0.48,0,0.81-0.16,1.05-0.75l0.47-1.07l-2.96-7.15h1.19
					l2.36,5.8l2.34-5.8h1.2l-3.54,8.51c-0.42,1.03-1.14,1.42-2.08,1.44c-0.23,0-0.6-0.04-0.81-0.1L247.53,478.06z"/>
			</g>
		</g>
	</g>
</g>
</svg>
